<svg width="26" height="26" viewBox="0 0 26 26" fill="none" xmlns="http://www.w3.org/2000/svg">
<path d="M22.5266 17.8689C21.9629 16.898 21.125 14.1507 21.125 10.5625C21.125 8.40762 20.269 6.34099 18.7453 4.81726C17.2216 3.29352 15.1549 2.4375 13 2.4375C10.8452 2.4375 8.77853 3.29352 7.2548 4.81726C5.73107 6.34099 4.87504 8.40762 4.87504 10.5625C4.87504 14.1517 4.03614 16.898 3.47247 17.8689C3.32852 18.1157 3.25221 18.3962 3.25123 18.6819C3.25025 18.9677 3.32463 19.2486 3.46688 19.4964C3.60912 19.7443 3.8142 19.9502 4.06143 20.0935C4.30866 20.2367 4.5893 20.3123 4.87504 20.3125H9.01981C9.20727 21.2298 9.70579 22.0541 10.4311 22.6462C11.1563 23.2382 12.0638 23.5616 13 23.5616C13.9363 23.5616 14.8438 23.2382 15.569 22.6462C16.2943 22.0541 16.7928 21.2298 16.9803 20.3125H21.125C21.4107 20.3121 21.6912 20.2364 21.9383 20.0931C22.1854 19.9497 22.3903 19.7438 22.5324 19.496C22.6746 19.2482 22.7489 18.9673 22.7478 18.6817C22.7468 18.396 22.6705 18.1157 22.5266 17.8689ZM13 21.9375C12.4961 21.9373 12.0046 21.781 11.5932 21.49C11.1818 21.199 10.8707 20.7876 10.7027 20.3125H15.2974C15.1294 20.7876 14.8183 21.199 14.4069 21.49C13.9955 21.781 13.504 21.9373 13 21.9375ZM4.87504 18.6875C5.65708 17.3428 6.50004 14.2269 6.50004 10.5625C6.50004 8.83859 7.18486 7.18529 8.40385 5.96631C9.62284 4.74732 11.2761 4.0625 13 4.0625C14.724 4.0625 16.3773 4.74732 17.5962 5.96631C18.8152 7.18529 19.5 8.83859 19.5 10.5625C19.5 14.2238 20.341 17.3398 21.125 18.6875H4.87504Z" fill="#737B8B"/>
</svg>
