<svg width="26" height="26" viewBox="0 0 26 26" fill="none" xmlns="http://www.w3.org/2000/svg">
<path d="M13.8125 8.12503V12.54L17.4809 14.7408C17.6657 14.8518 17.7988 15.0316 17.851 15.2408C17.9032 15.4499 17.8702 15.6712 17.7592 15.856C17.6482 16.0407 17.4684 16.1739 17.2593 16.2261C17.0501 16.2783 16.8288 16.2452 16.6441 16.1342L12.5816 13.6967C12.4613 13.6245 12.3618 13.5224 12.2928 13.4003C12.2237 13.2782 12.1875 13.1403 12.1875 13V8.12503C12.1875 7.90954 12.2731 7.70288 12.4255 7.55051C12.5778 7.39813 12.7845 7.31253 13 7.31253C13.2155 7.31253 13.4222 7.39813 13.5745 7.55051C13.7269 7.70288 13.8125 7.90954 13.8125 8.12503ZM13 3.25003C11.7183 3.24684 10.4486 3.49788 9.26459 3.98862C8.08053 4.47936 7.00555 5.20006 6.10188 6.10901C5.36352 6.85651 4.70742 7.57558 4.0625 8.32816V6.50003C4.0625 6.28454 3.9769 6.07788 3.82452 5.92551C3.67215 5.77313 3.46549 5.68753 3.25 5.68753C3.03451 5.68753 2.82785 5.77313 2.67548 5.92551C2.5231 6.07788 2.4375 6.28454 2.4375 6.50003V10.5625C2.4375 10.778 2.5231 10.9847 2.67548 11.1371C2.82785 11.2894 3.03451 11.375 3.25 11.375H7.3125C7.52799 11.375 7.73465 11.2894 7.88702 11.1371C8.0394 10.9847 8.125 10.778 8.125 10.5625C8.125 10.347 8.0394 10.1404 7.88702 9.98801C7.73465 9.83563 7.52799 9.75003 7.3125 9.75003H4.97656C5.70273 8.89487 6.42586 8.08948 7.25055 7.25464C8.37977 6.12542 9.81673 5.35401 11.3819 5.0368C12.947 4.71959 14.5709 4.87064 16.0507 5.47109C17.5305 6.07153 18.8005 7.09474 19.7021 8.41287C20.6037 9.73099 21.0968 11.2856 21.1199 12.8824C21.143 14.4792 20.6951 16.0474 19.832 17.391C18.9689 18.7347 17.729 19.7942 16.2672 20.4372C14.8054 21.0802 13.1866 21.2782 11.6129 21.0063C10.0392 20.7345 8.58056 20.005 7.41914 18.9089C7.34152 18.8356 7.25021 18.7782 7.15042 18.7402C7.05063 18.7021 6.94432 18.6841 6.83757 18.6871C6.73081 18.6901 6.62569 18.7141 6.52821 18.7578C6.43073 18.8014 6.34281 18.8638 6.26945 18.9414C6.1961 19.0191 6.13875 19.1104 6.10068 19.2102C6.06262 19.3099 6.04458 19.4163 6.0476 19.523C6.05061 19.6298 6.07463 19.7349 6.11827 19.8324C6.16191 19.9298 6.22433 20.0178 6.30195 20.0911C7.45921 21.1832 8.86615 21.9754 10.4 22.3987C11.9339 22.822 13.548 22.8634 15.1015 22.5194C16.6551 22.1754 18.1008 21.4564 19.3126 20.4252C20.5244 19.394 21.4654 18.0818 22.0534 16.6033C22.6414 15.1247 22.8587 13.5248 22.6862 11.943C22.5137 10.3611 21.9566 8.84561 21.0637 7.52859C20.1708 6.21157 18.9691 5.1331 17.5635 4.38731C16.1579 3.64152 14.5912 3.25107 13 3.25003Z" fill="#737B8B"/>
</svg>
