<svg width="23" height="24" viewBox="0 0 23 24" fill="none" xmlns="http://www.w3.org/2000/svg">
<path d="M12.8097 1.26545L19.7704 4.35648C21.776 5.24132 21.776 6.70425 19.7704 7.58909L12.8097 10.6801C12.0192 11.0341 10.7215 11.0341 9.93101 10.6801L2.97029 7.58909C0.964657 6.70425 0.964657 5.24132 2.97029 4.35648L9.93101 1.26545C10.7215 0.911516 12.0192 0.911516 12.8097 1.26545Z" stroke="#595959" stroke-width="1.5" stroke-linecap="round" stroke-linejoin="round"/>
<path d="M1 10.7981C1 11.7891 1.74326 12.9335 2.6517 13.3346L10.6624 16.8976C11.2759 17.1689 11.972 17.1689 12.5737 16.8976L20.5844 13.3346C21.4928 12.9335 22.2361 11.7891 22.2361 10.7981" stroke="#595959" stroke-width="1.5" stroke-linecap="round" stroke-linejoin="round"/>
<path d="M1 16.697C1 17.7942 1.64888 18.7852 2.6517 19.2336L10.6624 22.7965C11.2759 23.0678 11.972 23.0678 12.5737 22.7965L20.5844 19.2336C21.5872 18.7852 22.2361 17.7942 22.2361 16.697" stroke="#595959" stroke-width="1.5" stroke-linecap="round" stroke-linejoin="round"/>
</svg>
