<svg width="25" height="24" viewBox="0 0 25 24" fill="none" xmlns="http://www.w3.org/2000/svg">
<path d="M20.8307 6.36451C22.5882 6.36451 24.0129 4.93977 24.0129 3.18226C24.0129 1.42474 22.5882 0 20.8307 0C19.0732 0 17.6484 1.42474 17.6484 3.18226C17.6484 4.93977 19.0732 6.36451 20.8307 6.36451Z" fill="url(#paint0_linear_1_2463)"/>
<path opacity="0.3" d="M20.8293 7.81096C18.2719 7.81096 16.2006 5.7396 16.2006 3.18223C16.2006 2.1085 15.4898 0.867859 14.416 0.867859H5.78592C2.59209 0.867859 0 3.44838 0 6.63064V13.5506V14.7078C0 17.89 2.59209 20.4706 5.78592 20.4706H7.5217C7.83414 20.4706 8.25072 20.6789 8.44744 20.9334L10.1832 23.2362C10.947 24.2546 12.1967 24.2546 12.9605 23.2362L14.6962 20.9334C14.9161 20.6441 15.2633 20.4706 15.622 20.4706H17.3578C20.5516 20.4706 23.1437 17.89 23.1437 14.7078V9.59551C23.1437 8.52178 21.903 7.81096 20.8293 7.81096Z" fill="#565F70"/>
<path d="M11.5712 12.4397C10.9232 12.4397 10.4141 11.919 10.4141 11.2826C10.4141 10.6461 10.9348 10.1254 11.5712 10.1254C12.2077 10.1254 12.7284 10.6461 12.7284 11.2826C12.7284 11.919 12.2193 12.4397 11.5712 12.4397Z" fill="#565F70"/>
<path d="M16.2002 12.4397C15.5521 12.4397 15.043 11.919 15.043 11.2826C15.043 10.6461 15.5637 10.1254 16.2002 10.1254C16.8366 10.1254 17.3573 10.6461 17.3573 11.2826C17.3573 11.919 16.8482 12.4397 16.2002 12.4397Z" fill="#565F70"/>
<path d="M6.94234 12.4397C6.29432 12.4397 5.78516 11.919 5.78516 11.2826C5.78516 10.6461 6.30589 10.1254 6.94234 10.1254C7.57879 10.1254 8.09952 10.6461 8.09952 11.2826C8.09952 11.919 7.59036 12.4397 6.94234 12.4397Z" fill="#565F70"/>
<defs>
<linearGradient id="paint0_linear_1_2463" x1="20.8307" y1="0" x2="20.8307" y2="6.36451" gradientUnits="userSpaceOnUse">
<stop stop-color="#16FF66"/>
<stop offset="1" stop-color="#17C653"/>
</linearGradient>
</defs>
</svg>
