<svg width="22" height="22" viewBox="0 0 22 22" fill="none" xmlns="http://www.w3.org/2000/svg">
<path d="M7.79159 17.4166H7.33325C3.66659 17.4166 1.83325 16.5 1.83325 11.9166V7.33331C1.83325 3.66665 3.66659 1.83331 7.33325 1.83331H14.6666C18.3333 1.83331 20.1666 3.66665 20.1666 7.33331V11.9166C20.1666 15.5833 18.3333 17.4166 14.6666 17.4166H14.2083C13.9241 17.4166 13.6491 17.5541 13.4749 17.7833L12.0999 19.6166C11.4949 20.4233 10.5049 20.4233 9.89992 19.6166L8.52492 17.7833C8.37825 17.5816 8.03909 17.4166 7.79159 17.4166Z" stroke="#737B8B" stroke-width="1.5" stroke-miterlimit="10" stroke-linecap="round" stroke-linejoin="round"/>
<path d="M6.41675 7.33331H15.5834" stroke="#737B8B" stroke-width="1.5" stroke-linecap="round" stroke-linejoin="round"/>
<path d="M6.41675 11.9167H11.9167" stroke="#737B8B" stroke-width="1.5" stroke-linecap="round" stroke-linejoin="round"/>
</svg>
