<svg width="22" height="22" viewBox="0 0 22 22" fill="none" xmlns="http://www.w3.org/2000/svg">
<path d="M11 5.90332V8.95582" stroke="#737B8B" stroke-width="1.5" stroke-miterlimit="10" stroke-linecap="round"/>
<path d="M11.0182 1.83331C7.64491 1.83331 4.91324 4.56498 4.91324 7.93831V9.86331C4.91324 10.4866 4.65657 11.4216 4.33574 11.9533L3.17157 13.8966C2.45657 15.0975 2.95157 16.4358 4.27157 16.8758C8.65324 18.3333 13.3924 18.3333 17.7741 16.8758C19.0116 16.4633 19.5432 15.015 18.8741 13.8966L17.7099 11.9533C17.3891 11.4216 17.1324 10.4775 17.1324 9.86331V7.93831C17.1232 4.58331 14.3732 1.83331 11.0182 1.83331Z" stroke="#737B8B" stroke-width="1.5" stroke-miterlimit="10" stroke-linecap="round"/>
<path d="M14.0525 17.2516C14.0525 18.9291 12.6775 20.3041 11 20.3041C10.1658 20.3041 9.39584 19.9558 8.84584 19.4058C8.29584 18.8558 7.94751 18.0858 7.94751 17.2516" stroke="#737B8B" stroke-width="1.5" stroke-miterlimit="10"/>
</svg>
