<svg width="18" height="24" viewBox="0 0 18 24" fill="none" xmlns="http://www.w3.org/2000/svg">
<path opacity="0.3" d="M17.5856 14.6142L16.4155 12.6719C16.1698 12.2389 15.9475 11.4199 15.9475 10.9402V7.97987C15.9475 4.16543 12.8468 1.05304 9.02062 1.05304C5.19448 1.05304 2.09379 4.16543 2.09379 7.97987V10.9402C2.09379 11.4199 1.87147 12.2389 1.62576 12.6602L0.443982 14.6142C-0.0240471 15.3981 -0.129354 16.264 0.163164 17.0596C0.443982 17.8436 1.11092 18.452 1.97678 18.7446C4.24672 19.5168 6.63367 19.8912 9.02062 19.8912C11.4076 19.8912 13.7945 19.5168 16.0645 18.7563C16.8835 18.4871 17.5154 17.867 17.8196 17.0596C18.1238 16.2523 18.0419 15.363 17.5856 14.6142Z" fill="#565F70"/>
<path d="M9.53074 0.0429249C10.4273 0.195421 9.92892 1.05307 9.0195 1.05307C8.11637 1.05307 7.61705 0.19761 8.50699 0.0438218C8.67417 0.0149314 8.84552 0 9.0195 0C9.1935 0 9.36435 0.0146225 9.53074 0.0429249Z" fill="#565F70"/>
<path d="M11.733 21.1432C11.9962 21.1103 12.1958 21.3664 12.066 21.5977C11.4619 22.6737 10.3118 23.4015 8.99498 23.4015C8.07062 23.4015 7.15797 23.0271 6.51442 22.3601C6.25467 22.1166 6.03997 21.8168 5.87813 21.4958C5.78151 21.3041 5.95094 21.0895 6.1634 21.1198C6.43252 21.1549 6.71334 21.19 6.99415 21.2134C7.6611 21.272 8.33974 21.3071 9.01838 21.3071C9.68532 21.3071 10.3523 21.272 11.0075 21.2134C11.2532 21.19 11.4989 21.1783 11.733 21.1432Z" fill="#565F70"/>
</svg>
