<svg width="17" height="24" viewBox="0 0 17 24" fill="none" xmlns="http://www.w3.org/2000/svg">
<path opacity="0.3" d="M8.45006 0C5.30606 0 2.75006 2.556 2.75006 5.7C2.75006 8.74132 5.09577 11.2108 8.17597 11.3821C8.26221 11.3869 8.34909 11.38 8.43546 11.3791C8.46156 11.3788 8.48676 11.3795 8.51048 11.3811C8.55032 11.384 8.59013 11.388 8.63006 11.388C8.64206 11.388 8.64206 11.388 8.65406 11.388C11.7261 11.28 14.1381 8.784 14.1501 5.7C14.1501 2.556 11.5941 0 8.45006 0Z" fill="#565F70"/>
<path d="M14.5441 14.58C11.1961 12.348 5.73606 12.348 2.36406 14.58C0.840061 15.6 6.10352e-05 16.98 6.10352e-05 18.456C6.10352e-05 19.932 0.840061 21.3 2.35206 22.308C4.03206 23.436 6.24006 24 8.44806 24C10.6561 24 12.8641 23.436 14.5441 22.308C16.0561 21.288 16.8961 19.92 16.8961 18.432C16.8841 16.956 16.0561 15.588 14.5441 14.58Z" fill="#565F70"/>
</svg>
