<svg width="16" height="22" viewBox="0 0 16 22" fill="none" xmlns="http://www.w3.org/2000/svg">
<path d="M7.7266 9.68086H7.72662C7.76891 9.68038 7.81262 9.68146 7.85684 9.68459M7.7266 9.68086L7.80383 10.4327M7.7266 9.68086C7.64785 9.68175 7.61378 9.68352 7.59229 9.68463C7.57222 9.68567 7.56313 9.68615 7.53885 9.68479C5.10734 9.54954 3.27344 7.60946 3.27344 5.225C3.27344 2.75721 5.28065 0.75 7.74844 0.75C10.2157 0.75 12.2227 2.75643 12.2234 5.22355M7.7266 9.68086L12.2234 5.22355M7.85684 9.68459L7.80383 10.4327M7.85684 9.68459L7.85682 9.68459L7.80383 10.4327M7.85684 9.68459L7.88939 9.68705L7.9097 9.68857C7.91319 9.68881 7.91542 9.68894 7.91664 9.689M7.80383 10.4327C7.81225 10.4333 7.82068 10.434 7.8291 10.4346C7.85719 10.4368 7.88528 10.439 7.91344 10.439H7.93544M7.91664 9.689H7.91663H7.91658H7.91652H7.91647H7.91642H7.91637H7.91631H7.91626H7.91621H7.91615H7.9161H7.91604H7.91599H7.91593H7.91588H7.91582H7.91577H7.91571H7.91566H7.9156H7.91555H7.91549H7.91543H7.91538H7.91532H7.91526H7.9152H7.91515H7.91509H7.91503H7.91497H7.91491H7.91486H7.9148H7.91474H7.91468H7.91462H7.91456H7.9145H7.91444H7.91438H7.91432H7.91425H7.91419H7.91413H7.91407H7.91401H7.91395H7.91388H7.91382H7.91376H7.91369H7.91363H7.91357H7.9135H7.91344C7.91615 9.689 7.91778 9.68906 7.91778 9.68906C7.91778 9.68906 7.91742 9.68904 7.91664 9.689ZM7.91664 9.689H7.91668H7.91673H7.91678H7.91684H7.91689H7.91694H7.91699H7.91704H7.91709H7.91714H7.91719H7.91724H7.91729H7.91734H7.91739H7.91744H7.91749H7.91754H7.91758H7.91763H7.91768H7.91773H7.91778H7.91782H7.91787H7.91792H7.91797H7.91801H7.91806H7.91811H7.91815H7.9182H7.91825H7.91829H7.91834H7.91838H7.91843H7.91847H7.91852H7.91856H7.91861H7.91865H7.9187H7.91874H7.91879H7.91883H7.91888H7.91892H7.91896H7.91901H7.91905H7.91909H7.91914H7.91918H7.91922H7.91926H7.91931H7.91935H7.91939H7.91943H7.91948H7.91952H7.91956H7.9196H7.91964H7.91968H7.91972H7.91977H7.91981H7.91985H7.91989H7.91993H7.91997H7.92001H7.92005H7.92009H7.92013H7.92017H7.92021H7.92025H7.92029H7.92033H7.92037H7.9204H7.92044H7.92048H7.92052H7.92056H7.9206H7.92064H7.92067H7.92071H7.92075H7.92079H7.92083H7.92086H7.9209H7.92094H7.92098H7.92101H7.92105H7.92109H7.92112H7.92116H7.9212H7.92124H7.92127H7.92131H7.92134H7.92138H7.92142H7.92145H7.92149H7.92153H7.92156H7.9216H7.92163H7.92167H7.9217H7.92174H7.92178M7.92178 9.689C7.919 9.68911 7.91622 9.68921 7.91344 9.68931C7.91199 9.68936 7.91054 9.68941 7.90909 9.68946L7.91344 9.81322L7.93544 10.439M7.92178 9.689C10.3266 9.59784 12.2133 7.64491 12.2234 5.22355M7.92178 9.689H7.92181H7.92185H7.92188H7.92192H7.92195H7.92199H7.92202H7.92206H7.92209H7.92213H7.92216H7.92219H7.92223H7.92226H7.9223H7.92233H7.92237H7.9224H7.92243H7.92247H7.9225H7.92254H7.92257H7.9226H7.92264H7.92267H7.9227H7.92274H7.92277H7.92281H7.92284H7.92287H7.92291H7.92294H7.92297H7.92301H7.92304H7.92307H7.9231H7.92314H7.92317H7.9232H7.92324H7.92327H7.9233H7.92334H7.92337H7.9234H7.92343H7.92347H7.9235H7.92353H7.92356H7.9236H7.92363H7.92366H7.92369H7.92373H7.92376H7.92379H7.92382H7.92386H7.92389H7.92392H7.92395H7.92399H7.92402H7.92405H7.92408H7.92411H7.92415H7.92418H7.92421H7.92424H7.92428H7.92431H7.92434H7.92437H7.92441H7.92444H7.92447H7.9245H7.92453H7.92457H7.9246H7.92463H7.92466H7.9247H7.92473H7.92476H7.92479H7.92482H7.92486H7.92489H7.92492H7.92495H7.92499H7.92502H7.92505H7.92508H7.92512H7.92515H7.92518H7.92521H7.92525H7.92528H7.92531H7.92534H7.92538H7.92541H7.92544H7.92547H7.92551H7.92554H7.92557H7.92561H7.92564H7.92567H7.9257H7.92574H7.92577H7.9258H7.92584H7.92587H7.9259H7.92594H7.92597H7.926H7.92604H7.92607H7.9261H7.92614H7.92617H7.9262H7.92624H7.92627H7.9263H7.92634H7.92637H7.92641H7.92644H7.92647H7.92651H7.92654H7.92658H7.92661H7.92665H7.92668H7.92671H7.92675H7.92678H7.92682H7.92685H7.92689H7.92692H7.92696H7.92699H7.92703H7.92706H7.9271H7.92713H7.92717H7.92721H7.92724H7.92728H7.92731H7.92735H7.92739H7.92742H7.92746H7.92749H7.92753H7.92757H7.9276H7.92764H7.92768H7.92771H7.92775H7.92779H7.92782H7.92786H7.9279H7.92794H7.92797H7.92801H7.92805H7.92809H7.92812H7.92816H7.9282H7.92824H7.92828H7.92832H7.92835H7.92839H7.92843H7.92847H7.92851H7.92855H7.92859H7.92863H7.92867H7.92871H7.92875H7.92879H7.92883H7.92887H7.92891H7.92895H7.92899H7.92903H7.92907H7.92911H7.92915H7.92919H7.92923H7.92927H7.92932H7.92936H7.9294H7.92944H7.92948H7.92953H7.92957H7.92961H7.92965H7.9297H7.92974H7.92978H7.92982H7.92987H7.92991H7.92996H7.93H7.93004H7.93009H7.93013H7.93018H7.93022H7.93027H7.93031H7.93036H7.9304H7.93045H7.93049H7.93054H7.93058H7.93063H7.93068H7.93072H7.93077H7.93081H7.93086H7.93091H7.93096H7.931H7.93105H7.9311H7.93115H7.93119H7.93124H7.93129H7.93134H7.93139H7.93144H7.93149H7.93154H7.93159H7.93163H7.93168H7.93174H7.93179H7.93184H7.93189H7.93194H7.93199H7.93204H7.93209H7.93214H7.93219H7.93225H7.9323H7.93235H7.9324H7.93246H7.93251H7.93256H7.93262H7.93267H7.93272H7.93278H7.93283H7.93289H7.93294H7.933H7.93305H7.93311H7.93316H7.93322H7.93327H7.93333H7.93339H7.93344H7.9335H7.93356H7.93361H7.93367H7.93373H7.93379H7.93384H7.9339H7.93396H7.93402H7.93408H7.93414H7.9342H7.93426H7.93432H7.93438H7.93444H7.9345H7.93456H7.93462H7.93468H7.93474H7.93481H7.93487H7.93493H7.93499H7.93506H7.93512H7.93518H7.93525H7.93531H7.93537H7.93544V10.439M7.93544 10.439L12.2234 5.22355" stroke="#737B8B" stroke-width="1.5"/>
<path d="M2.57408 19.8263L2.57203 19.825C1.3376 19.002 0.75 17.9586 0.75 16.918C0.75 15.8768 1.33816 14.8228 2.58254 13.9894C3.98039 13.0647 5.85171 12.5805 7.75775 12.5805C9.66473 12.5805 11.5301 13.0651 12.916 13.989C14.145 14.8084 14.7284 15.8513 14.738 16.899C14.7369 17.9503 14.1485 18.9932 12.9134 19.8267C11.5221 20.7607 9.65216 21.25 7.744 21.25C5.83558 21.25 3.96541 20.7605 2.57408 19.8263Z" stroke="#737B8B" stroke-width="1.5"/>
</svg>
