<svg width="26" height="26" viewBox="0 0 26 26" fill="none" xmlns="http://www.w3.org/2000/svg">
<path d="M21.9375 4.0625H4.0625C3.63152 4.0625 3.2182 4.2337 2.91345 4.53845C2.6087 4.8432 2.4375 5.25652 2.4375 5.6875V20.3125C2.4375 20.7435 2.6087 21.1568 2.91345 21.4615C3.2182 21.7663 3.63152 21.9375 4.0625 21.9375H21.9375C22.3685 21.9375 22.7818 21.7663 23.0865 21.4615C23.3913 21.1568 23.5625 20.7435 23.5625 20.3125V5.6875C23.5625 5.25652 23.3913 4.8432 23.0865 4.53845C22.7818 4.2337 22.3685 4.0625 21.9375 4.0625ZM4.0625 15.4375H5.6875C5.90299 15.4375 6.10965 15.3519 6.26202 15.1995C6.4144 15.0472 6.5 14.8405 6.5 14.625C6.5 14.4095 6.4144 14.2028 6.26202 14.0505C6.10965 13.8981 5.90299 13.8125 5.6875 13.8125H4.0625V12.1875H5.6875C5.90299 12.1875 6.10965 12.1019 6.26202 11.9495C6.4144 11.7972 6.5 11.5905 6.5 11.375C6.5 11.1595 6.4144 10.9528 6.26202 10.8005C6.10965 10.6481 5.90299 10.5625 5.6875 10.5625H4.0625V8.9375H5.6875C5.90299 8.9375 6.10965 8.8519 6.26202 8.69952C6.4144 8.54715 6.5 8.34049 6.5 8.125C6.5 7.90951 6.4144 7.70285 6.26202 7.55048C6.10965 7.3981 5.90299 7.3125 5.6875 7.3125H4.0625V5.6875H8.125V20.3125H4.0625V15.4375ZM21.9375 20.3125H9.75V5.6875H21.9375V20.3125Z" fill="#737B8B"/>
</svg>
